<svg width="65" height="65" viewBox="0 0 65 65" fill="none" xmlns="http://www.w3.org/2000/svg">
<path d="M35.4191 23.8476C36.1952 23.4141 37.0668 23.1855 37.9398 23.1855C39.4003 23.1855 40.8014 23.8079 41.7825 24.8927C42.1903 25.3442 42.7729 25.6031 43.381 25.6031C43.9894 25.6031 44.5721 25.3442 44.979 24.8929C45.9601 23.8079 47.3606 23.1855 48.8223 23.1855C50.3751 23.1855 51.8328 23.8742 52.8221 25.0753C53.233 25.5739 53.8392 25.86 54.485 25.86H54.843C56.031 25.86 56.9977 24.8932 56.9977 23.7053C56.9977 23.6676 56.996 23.6293 56.994 23.5919C56.9626 17.6983 54.4247 12.1993 49.8467 8.10457C45.9366 4.60881 40.9543 2.47215 35.4111 1.90805C34.9175 0.760419 33.7916 0 32.4997 0C31.2083 0 30.0824 0.760134 29.5883 1.90719C24.0428 2.47158 19.0599 4.60795 15.1492 8.10485C10.5404 12.2264 8.00195 17.7668 8.00195 23.7053C8.00195 24.8932 8.96841 25.86 10.1563 25.86H10.511C11.1571 25.86 11.7632 25.5739 12.1741 25.0753C13.1631 23.8742 14.6211 23.1855 16.1745 23.1855C17.6356 23.1855 19.0365 23.8079 20.0172 24.8927C20.425 25.3442 21.0077 25.6031 21.6158 25.6031C22.2239 25.6031 22.8066 25.3442 23.2141 24.8929C24.1948 23.8079 25.5953 23.1855 27.057 23.1855C27.9303 23.1855 28.8016 23.4144 29.5777 23.8476L29.6403 23.8825V25.7292H35.3585V23.8813L35.4191 23.8476Z" fill="white"/>
<path fill-rule="evenodd" clip-rule="evenodd" d="M29.6403 30.0647H22.7154C20.0878 30.0647 17.1378 32.0422 16.1402 34.4732L14.3634 38.8008L13.1843 38.4759C12.8631 38.3873 12.5422 38.3425 12.2307 38.3425C10.663 38.3425 9.52479 39.4672 9.52479 41.0163C9.52479 42.5458 10.641 43.8334 12.1538 44.2201C11.3243 46.511 10.6796 49.9448 10.6796 52.2012V61.4277C10.6796 63.3974 12.2818 64.9997 14.2516 64.9997H15.5613C17.5308 64.9997 19.1333 63.3974 19.1333 61.4277V59.7019H45.8337V61.4277C45.8337 63.3974 47.436 64.9997 49.4058 64.9997H50.716C52.6858 64.9997 54.2881 63.3974 54.2881 61.4277V52.2012C54.2881 49.9471 53.6446 46.5176 52.8164 44.2272C54.3441 43.8503 55.4749 42.5555 55.4749 41.0166C55.4749 39.4672 54.3372 38.3427 52.7693 38.3427C52.4578 38.3427 52.1369 38.3876 51.8157 38.4762L50.6072 38.8091L48.8271 34.4732C47.8295 32.0422 44.8796 30.0647 42.252 30.0647H35.3585V28.4375H29.6403V30.0647ZM22.8537 54.8742C23.6396 54.8742 24.2825 54.2312 24.2825 53.4454V51.0818C24.2825 50.296 23.6396 49.653 22.8537 49.653H16.9275C16.1417 49.653 15.4987 50.296 15.4987 51.0818V53.4454C15.4987 54.2312 16.1417 54.8742 16.9275 54.8742H22.8537ZM49.4044 53.4454V51.0818C49.4044 50.296 48.7614 49.653 47.9756 49.653H42.0499C41.2641 49.653 40.6211 50.296 40.6211 51.0818V53.4454C40.6211 54.2312 41.2641 54.8742 42.0499 54.8742H47.9756C48.7614 54.8742 49.4044 54.2312 49.4044 53.4454ZM48.3842 41.9431L45.4803 34.8693C44.8836 33.4156 43.1093 32.2259 41.5376 32.2257H23.4307C21.859 32.2257 20.0846 33.4153 19.488 34.8693L16.584 41.9431C15.9871 43.3971 16.7846 44.5867 18.3563 44.5867H46.6119C48.1836 44.5867 48.9812 43.3971 48.3842 41.9431Z" fill="white"/>
</svg>
