<svg width="65" height="65" viewBox="0 0 65 65" fill="none" xmlns="http://www.w3.org/2000/svg">
<path d="M38.5937 0H7.44792C3.33125 0 0 3.33125 0 7.44792V49.4271C0 53.5437 3.33125 56.875 7.44792 56.875H29.5208C27.2458 53.2729 25.7292 49.0208 25.7292 44.1458V37.5375C25.3229 37.7812 24.8625 37.9167 24.375 37.9167H10.8333C9.34375 37.9167 8.125 36.6979 8.125 35.2083C8.125 33.7187 9.34375 32.5 10.8333 32.5H24.375C24.8896 32.5 25.35 32.6354 25.7562 32.8792C25.8646 30.5771 26.9479 28.4646 28.6542 27.0833H10.8333C9.34375 27.0833 8.125 25.8646 8.125 24.375C8.125 22.8854 9.34375 21.6667 10.8333 21.6667H35.2083C36.3458 21.6667 37.3208 22.3708 37.7271 23.3729L45.4458 20.7458C45.6354 20.6646 45.825 20.6104 46.0417 20.5833V7.44792C46.0417 3.33125 42.7104 0 38.5937 0V0ZM21.6667 16.25H10.8333C9.34375 16.25 8.125 15.0312 8.125 13.5417C8.125 12.0521 9.34375 10.8333 10.8333 10.8333H21.6667C23.1562 10.8333 24.375 12.0521 24.375 13.5417C24.375 15.0312 23.1562 16.25 21.6667 16.25Z" fill="white"/>
<path d="M63.1637 30.7097L48.945 25.8726C48.3789 25.6803 47.7641 25.6803 47.1981 25.8726L32.9793 30.7097C31.8824 31.0834 31.1431 32.1153 31.1431 33.2745V44.1566C31.1431 57.8797 46.3612 64.5097 47.0085 64.7859C47.3498 64.9295 47.7127 64.9999 48.0729 64.9999C48.4331 64.9999 48.796 64.9295 49.1346 64.7832C49.7818 64.507 65 57.8797 65 44.1566V33.2745C65 32.1126 64.2633 31.0834 63.1637 30.7097V30.7097ZM57.6875 40.8957L49.5625 51.7291C49.0912 52.3574 48.3735 52.7501 47.5881 52.8043C47.5231 52.8097 47.4581 52.8124 47.3958 52.8124C46.6781 52.8124 45.9902 52.5307 45.481 52.0189L40.0643 46.6022C39.0054 45.5432 39.0054 43.8316 40.0643 42.7726C41.1233 41.7137 42.835 41.7137 43.8939 42.7726L47.1033 45.982L53.3541 37.6457C54.2506 36.4514 55.9487 36.2049 57.1431 37.1041C58.3429 38.0005 58.5866 39.6987 57.6875 40.8957V40.8957Z" fill="white"/>
</svg>
