<svg width="72" height="72" viewBox="0 0 72 72" fill="none" xmlns="http://www.w3.org/2000/svg">
<circle cx="36" cy="36" r="36" fill="url(#paint0_linear)"/>
<g clip-path="url(#clip0)">
<path d="M21.75 33.75C19.683 33.75 18 35.433 18 37.5V49.5C18 51.567 19.683 53.25 21.75 53.25H26.25C27.0945 53.25 27.8715 52.965 28.5 52.491V33.75H21.75Z" fill="white"/>
<path d="M54 39.375C54 38.4735 53.643 37.6335 53.0235 37.014C53.724 36.2475 54.081 35.2199 53.9835 34.1505C53.808 32.244 52.0904 30.75 50.0715 30.75H40.806C41.265 29.3564 42 26.802 42 24.75C42 21.4965 39.2355 18.75 37.5 18.75C35.9415 18.75 34.8284 19.6275 34.7805 19.6635C34.6035 19.806 34.5 20.022 34.5 20.25V25.3365L30.18 34.695L30 34.7865V50.8635C31.221 51.4395 32.766 51.75 33.75 51.75H47.5185C49.152 51.75 50.5815 50.649 50.9175 49.1295C51.09 48.348 50.9895 47.5605 50.646 46.8765C51.7545 46.3185 52.5 45.177 52.5 43.875C52.5 43.344 52.3785 42.8355 52.1475 42.375C53.256 41.817 54 40.6755 54 39.375Z" fill="white"/>
</g>
<defs>
<linearGradient id="paint0_linear" x1="36" y1="72" x2="36" y2="4.9318e-07" gradientUnits="userSpaceOnUse">
<stop stop-color="#E3781C"/>
<stop offset="1" stop-color="#EB9F5D"/>
</linearGradient>
<clipPath id="clip0">
<rect x="18" y="18" width="36" height="36" fill="white"/>
</clipPath>
</defs>
</svg>
