<svg width="72" height="72" viewBox="0 0 72 72" fill="none" xmlns="http://www.w3.org/2000/svg">
<circle cx="36" cy="36" r="36" fill="url(#paint0_linear)"/>
<g clip-path="url(#clip0)">
<path d="M46.905 28.7164L49.0605 26.5609L46.9395 24.4391L44.6336 26.745C42.5271 25.2522 40.069 24.3321 37.5 24.075V21H40.5V18H31.5V21H34.5V24.075C31.931 24.3321 29.4729 25.2522 27.3664 26.745L25.0605 24.4391L22.9395 26.5609L25.095 28.7164C23.083 30.8467 21.739 33.5196 21.229 36.4052C20.7189 39.2907 21.0653 42.2625 22.2251 44.9534C23.385 47.6443 25.3077 49.9366 27.7557 51.5471C30.2036 53.1577 33.0697 54.0159 36 54.0159C38.9303 54.0159 41.7964 53.1577 44.2444 51.5471C46.6923 49.9366 48.615 47.6443 49.7749 44.9534C50.9348 42.2625 51.2811 39.2907 50.7711 36.4052C50.2611 33.5196 48.917 30.8467 46.905 28.7164V28.7164ZM36 51C33.6266 51 31.3066 50.2962 29.3332 48.9776C27.3598 47.6591 25.8217 45.7849 24.9135 43.5922C24.0052 41.3995 23.7676 38.9867 24.2306 36.6589C24.6936 34.3311 25.8365 32.1929 27.5147 30.5147C29.193 28.8365 31.3312 27.6936 33.6589 27.2306C35.9867 26.7676 38.3995 27.0052 40.5922 27.9134C42.7849 28.8217 44.6591 30.3598 45.9776 32.3332C47.2962 34.3065 48 36.6266 48 39C47.9964 42.1815 46.731 45.2317 44.4813 47.4813C42.2317 49.731 39.1815 50.9964 36 51V51Z" fill="white"/>
<path d="M36 30V39H27C27 40.78 27.5278 42.5201 28.5168 44.0001C29.5057 45.4802 30.9113 46.6337 32.5558 47.3149C34.2004 47.9961 36.01 48.1743 37.7558 47.8271C39.5016 47.4798 41.1053 46.6226 42.364 45.364C43.6226 44.1053 44.4798 42.5016 44.8271 40.7558C45.1743 39.01 44.9961 37.2004 44.3149 35.5558C43.6337 33.9113 42.4802 32.5057 41.0001 31.5168C39.5201 30.5278 37.78 30 36 30V30Z" fill="white"/>
</g>
<defs>
<linearGradient id="paint0_linear" x1="36" y1="72" x2="36" y2="4.9318e-07" gradientUnits="userSpaceOnUse">
<stop stop-color="#E3781C"/>
<stop offset="1" stop-color="#EB9F5D"/>
</linearGradient>
<clipPath id="clip0">
<rect x="18" y="18" width="36" height="36" fill="white"/>
</clipPath>
</defs>
</svg>
