<svg width="72" height="72" viewBox="0 0 72 72" fill="none" xmlns="http://www.w3.org/2000/svg">
<circle cx="36" cy="36" r="36" fill="url(#paint0_linear)"/>
<g clip-path="url(#clip0)">
<path d="M46.5469 45.4922C45.9654 45.4922 45.4922 45.9654 45.4922 46.5469C45.4922 47.1283 45.9654 47.6016 46.5469 47.6016C47.1283 47.6016 47.6016 47.1283 47.6016 46.5469C47.6016 45.9654 47.1286 45.4922 46.5469 45.4922Z" fill="white"/>
<path d="M48.063 28.4118L51.0711 27.2626C51.3372 27.161 51.5509 26.9558 51.6635 26.6941L53.9143 21.4602C54.0849 21.0636 53.9965 20.603 53.691 20.2978L51.7022 18.309C51.3971 18.0036 50.9365 17.9152 50.5399 18.086L45.306 20.3368C45.0443 20.4492 44.8391 20.6631 44.7375 20.9293L43.5883 23.937L35.7515 31.7741L40.2259 36.2489L48.063 28.4118Z" fill="white"/>
<path d="M39.4802 38.4859L33.5141 32.5198C33.316 32.3221 33.048 32.2108 32.7681 32.2108C32.4885 32.2108 32.2202 32.3221 32.0224 32.5198L30.0339 34.5086C29.6219 34.9203 29.6219 35.588 30.0339 36C30.445 36.4112 30.445 37.0805 30.0339 37.4917C29.6227 37.9028 28.9536 37.9028 28.5422 37.4917C28.3445 37.2939 28.0761 37.1827 27.7965 37.1827C27.5169 37.1827 27.2486 37.2939 27.0508 37.4917L19.5447 44.9978C18.5485 45.9937 18 47.3178 18 48.7266C18 50.1353 18.5485 51.4594 19.5447 52.4556C20.5727 53.4836 21.9229 53.9978 23.2734 53.9975C24.6237 53.9975 25.9744 53.4834 27.0022 52.4556L34.5083 44.9495C34.9203 44.5375 34.9203 43.8698 34.5083 43.4578C34.3092 43.2587 34.1993 42.9936 34.1993 42.7121C34.1993 42.4303 34.3092 42.1655 34.5083 41.9661C34.9198 41.555 35.5888 41.555 36 41.9661C36.4117 42.3781 37.0797 42.3781 37.4917 41.9661L39.4802 39.9776C39.8922 39.5656 39.8922 38.8979 39.4802 38.4859V38.4859ZM29.6441 43.8473L24.0191 49.4723C23.8134 49.6783 23.5434 49.7812 23.2734 49.7812C23.0037 49.7812 22.7337 49.6783 22.5277 49.4723C22.1158 49.0605 22.1158 48.3926 22.5277 47.9809L28.1527 42.3559C28.5647 41.9439 29.2324 41.9439 29.6444 42.3559C30.0561 42.7676 30.0561 43.4355 29.6441 43.8473Z" fill="white"/>
<path d="M46.617 39.2344C45.7678 39.2344 44.9375 39.3794 44.1407 39.6664L41.966 37.4917L41.5905 37.8672C41.7918 38.2879 41.8984 38.7516 41.8984 39.2317C41.8984 40.0771 41.5691 40.8716 40.9714 41.4693L38.9829 43.4576L39.6663 44.1409C39.3792 44.938 39.2342 45.768 39.2342 46.6172C39.2342 50.6882 42.5461 54 46.617 54C50.688 54 53.9998 50.6882 53.9998 46.6172C53.9998 42.5462 50.688 39.2344 46.617 39.2344ZM46.5467 49.711C44.8021 49.711 43.3827 48.2915 43.3827 46.5469C43.3827 44.8023 44.8021 43.3828 46.5467 43.3828C48.2914 43.3828 49.7108 44.8023 49.7108 46.5469C49.7108 48.2915 48.2914 49.711 46.5467 49.711Z" fill="white"/>
<path d="M27.8538 32.3275L28.543 33.0169L30.5315 31.0284C31.1289 30.4307 31.9235 30.1014 32.7686 30.1014C33.249 30.1014 33.7126 30.208 34.1334 30.4093L34.5088 30.0341L32.328 27.8534C33.2756 25.1925 32.623 22.1817 30.5988 20.1577C28.3944 17.9533 25.0196 17.3754 22.2014 18.7199C21.8924 18.8674 21.674 19.1558 21.6161 19.4933C21.5581 19.8309 21.6674 20.1756 21.9097 20.4175L24.7307 23.2388L24.4821 24.4817L23.2393 24.7302L20.418 21.9092C20.176 21.6672 19.8314 21.5576 19.4938 21.6156C19.1562 21.6735 18.8679 21.8919 18.7204 22.2009C17.3759 25.0194 17.9538 28.3939 20.1582 30.5986C22.1822 32.6225 25.193 33.2751 27.8538 32.3275Z" fill="white"/>
</g>
<defs>
<linearGradient id="paint0_linear" x1="36" y1="72" x2="36" y2="4.9318e-07" gradientUnits="userSpaceOnUse">
<stop stop-color="#E3781C"/>
<stop offset="1" stop-color="#EB9F5D"/>
</linearGradient>
<clipPath id="clip0">
<rect x="18" y="18" width="36" height="36" fill="white"/>
</clipPath>
</defs>
</svg>
