<svg width="65" height="65" viewBox="0 0 65 65" fill="none" xmlns="http://www.w3.org/2000/svg">
<path d="M29.4531 37.5781V42.6562H35.5469V37.5781C35.5469 37.0394 35.7609 36.5227 36.1418 36.1418C36.5227 35.7609 37.0394 35.5469 37.5781 35.5469H42.6562V29.4531H37.5781C37.0394 29.4531 36.5227 29.2391 36.1418 28.8582C35.7609 28.4773 35.5469 27.9606 35.5469 27.4219V22.3438H29.4531V27.4219C29.4531 27.9606 29.2391 28.4773 28.8582 28.8582C28.4773 29.2391 27.9606 29.4531 27.4219 29.4531H22.3438V35.5469H27.4219C27.9606 35.5469 28.4773 35.7609 28.8582 36.1418C29.2391 36.5227 29.4531 37.0394 29.4531 37.5781Z" fill="white"/>
<path d="M32.5001 11.5527C27.2332 14.7956 21.3567 16.9229 15.2345 17.8029V32.1953C15.2221 36.1581 16.32 40.0451 18.4037 43.4158C20.4874 46.7866 23.4736 49.5063 27.0239 51.2667L32.5001 54.0048L37.9764 51.2627C41.526 49.5025 44.5118 46.7835 46.5955 43.4135C48.6791 40.0435 49.7773 36.1574 49.7657 32.1953V17.8049C43.6435 16.9234 37.7672 14.7955 32.5001 11.5527V11.5527ZM44.6876 35.5469C44.6876 36.0856 44.4736 36.6023 44.0927 36.9832C43.7117 37.3641 43.1951 37.5781 42.6564 37.5781H37.5782V42.6562C37.5782 43.195 37.3642 43.7116 36.9833 44.0926C36.6024 44.4735 36.0857 44.6875 35.547 44.6875H29.4532C28.9145 44.6875 28.3979 44.4735 28.0169 44.0926C27.636 43.7116 27.422 43.195 27.422 42.6562V37.5781H22.3439C21.8051 37.5781 21.2885 37.3641 20.9075 36.9832C20.5266 36.6023 20.3126 36.0856 20.3126 35.5469V29.4531C20.3126 28.9144 20.5266 28.3977 20.9075 28.0168C21.2885 27.6359 21.8051 27.4219 22.3439 27.4219H27.422V22.3438C27.422 21.805 27.636 21.2884 28.0169 20.9074C28.3979 20.5265 28.9145 20.3125 29.4532 20.3125H35.547C36.0857 20.3125 36.6024 20.5265 36.9833 20.9074C37.3642 21.2884 37.5782 21.805 37.5782 22.3438V27.4219H42.6564C43.1951 27.4219 43.7117 27.6359 44.0927 28.0168C44.4736 28.3977 44.6876 28.9144 44.6876 29.4531V35.5469Z" fill="white"/>
<path d="M34.4014 5.53516L32.5001 4.26562L30.6365 5.51281C24.2705 9.77601 16.8018 12.0951 9.14077 12.1875V32.1953C9.12442 37.2906 10.5358 42.2885 13.215 46.6226C15.8941 50.9566 19.7339 54.4534 24.299 56.7166L32.5001 60.8177L40.7013 56.7166C45.2664 54.4534 49.1061 50.9566 51.7853 46.6226C54.4645 42.2885 55.8759 37.2906 55.8595 32.1953V12.1875C48.2136 12.0945 40.7591 9.7835 34.4014 5.53516V5.53516ZM51.797 32.1953C51.8107 36.5357 50.6082 40.793 48.326 44.4849C46.0437 48.1768 42.773 51.1556 38.8844 53.0837L32.5001 56.2758L26.1159 53.0837C22.2273 51.1556 18.9565 48.1768 16.6743 44.4849C14.3921 40.793 13.1896 36.5357 13.2033 32.1953V16.0184L14.093 15.9077C20.4496 15.1201 26.5521 12.9309 31.9598 9.49813L32.5001 9.15485L33.0425 9.49813C38.4488 12.931 44.5499 15.1209 50.9053 15.9098L51.795 16.0215L51.797 32.1953Z" fill="white"/>
</svg>
