<svg width="72" height="72" viewBox="0 0 72 72" fill="none" xmlns="http://www.w3.org/2000/svg">
<circle cx="36" cy="36" r="36" fill="url(#paint0_linear)"/>
<g clip-path="url(#clip0)">
<path d="M51.289 39.2087L49.7946 36.7946C49.7946 36.7562 49.7562 36.6796 49.7562 36.6413L47.687 28.9774C47.5337 28.4793 47.1122 28.1344 46.5757 28.1344H25.8066C25.2702 28.1344 24.8486 28.4793 24.6954 28.9774L22.6261 36.6413L20.7485 39.0937C20.5952 39.2853 20.5186 39.5536 20.5186 39.8218V48.5203C20.5186 49.1717 21.0167 49.6699 21.6681 49.6699H22.0513V52.8504C22.0513 53.5018 22.5495 53.9999 23.2009 53.9999H28.7955C29.447 53.9999 29.9451 53.5018 29.9451 52.8504V49.6699H42.054V52.8504C42.054 53.5018 42.5522 53.9999 43.2036 53.9999H48.7982C49.4497 53.9999 49.9478 53.5018 49.9478 52.8504V49.6699H50.331C50.9825 49.6699 51.4806 49.1717 51.4806 48.5203V39.8218C51.4806 39.5919 51.404 39.4003 51.289 39.2087ZM29.6769 44.5734C29.6769 45.2248 29.1787 45.723 28.5273 45.723H24.9636C24.3122 45.723 23.814 45.2248 23.814 44.5734V42.121C23.814 41.4695 24.3122 40.9714 24.9636 40.9714H28.5273C29.1787 40.9714 29.6769 41.4695 29.6769 42.121V44.5734V44.5734ZM39.5633 44.3052H32.4359V42.006H39.5633V44.3052ZM25.2318 35.7983L26.688 30.4336H45.6944L47.1505 35.7983H25.2318ZM48.1851 44.5734C48.1851 45.2248 47.687 45.723 47.0356 45.723H43.4719C42.8204 45.723 42.3223 45.2248 42.3223 44.5734V42.121C42.3223 41.4695 42.8204 40.9714 43.4719 40.9714H47.0739C47.7253 40.9714 48.2235 41.4695 48.2235 42.121L48.1851 44.5734Z" fill="white"/>
<path d="M45.4269 21.007H48.0709L47.8027 20.3556C46.9979 18.4013 44.7371 17.4816 42.7828 18.3247C42.1314 18.5929 41.5949 19.0527 41.1734 19.5892H30.8655C29.6393 17.8648 27.2252 17.4816 25.5008 18.7462C24.926 19.1677 24.5045 19.7041 24.2362 20.3556L23.968 21.007H26.612V22.6547H23.9297L24.1979 23.3062C25.0026 25.2605 27.2635 26.1801 29.2178 25.3371C29.8692 25.0689 30.4057 24.609 30.8272 24.0726H41.1351C42.3613 25.7969 44.7754 26.1801 46.4998 24.9156C47.0746 24.4941 47.4961 23.9576 47.7643 23.3062L48.0326 22.6547H45.4269V21.007Z" fill="white"/>
</g>
<defs>
<linearGradient id="paint0_linear" x1="36" y1="72" x2="36" y2="4.9318e-07" gradientUnits="userSpaceOnUse">
<stop stop-color="#E3781C"/>
<stop offset="1" stop-color="#EB9F5D"/>
</linearGradient>
<clipPath id="clip0">
<rect x="18" y="18" width="36" height="36" fill="white"/>
</clipPath>
</defs>
</svg>
