<svg width="65" height="65" viewBox="0 0 65 65" fill="none" xmlns="http://www.w3.org/2000/svg">
<path d="M16.054 40.4361C16.2338 40.3213 16.4308 40.2066 16.6502 40.0918C15.7177 37.3355 15.2396 34.4459 15.2344 31.5362V15.4375C15.2345 15.1911 15.3242 14.9531 15.4868 14.768C15.6493 14.5828 15.8737 14.463 16.118 14.431C21.691 13.6998 27.0805 11.9437 32.0145 9.25133C32.1635 9.17026 32.3304 9.12779 32.5 9.12779C32.6696 9.12779 32.8365 9.17026 32.9855 9.25133C37.9199 11.9435 43.3098 13.6996 48.8831 14.431C49.1272 14.4633 49.3513 14.5831 49.5136 14.7683C49.676 14.9534 49.7655 15.1913 49.7656 15.4375V31.5362C49.7587 36.4147 48.4284 41.2 45.9164 45.3822L46.7106 45.8159L51.1357 46.4984C53.5727 41.8877 54.8457 36.7512 54.8438 31.5362V9.74086C47.0974 9.73513 39.5136 7.51854 32.9834 3.35156L32.5 3.04688L32.0166 3.35156C25.4865 7.51865 17.9026 9.73524 10.1563 9.74086V31.5362C10.1556 35.3338 10.8307 39.1012 12.1499 42.6623L16.054 40.4361Z" fill="white"/>
<path d="M32.5 11.2927C27.7429 13.8177 22.5915 15.5166 17.2656 16.317V31.5362C17.2704 34.1988 17.7032 36.8434 18.5473 39.3687C21.132 38.7667 23.7844 38.5062 26.4367 38.5937C30.2326 38.5008 34.0022 39.2467 37.4766 40.7784L44.1299 44.4092C46.4801 40.526 47.7263 36.0752 47.7344 31.5362V16.317C42.4085 15.5163 37.2573 13.8174 32.5 11.2927ZM32.5 32.3253L29.8736 34.9517C29.4927 35.3325 28.9761 35.5464 28.4375 35.5464C27.8989 35.5464 27.3823 35.3325 27.0014 34.9517L21.3281 29.2784L24.375 26.2316L28.4375 30.2941L32.5 26.2316L40.625 18.1066L43.6719 21.1534L32.5 32.3253Z" fill="white"/>
<path d="M14.2188 61.9531C16.4624 61.9531 18.2812 60.1343 18.2812 57.8906C18.2812 55.647 16.4624 53.8281 14.2188 53.8281C11.9751 53.8281 10.1562 55.647 10.1562 57.8906C10.1562 60.1343 11.9751 61.9531 14.2188 61.9531Z" fill="white"/>
<path d="M62.7246 54.1024L61.9223 51.4923C61.9028 51.4396 61.879 51.3887 61.8512 51.3399C61.5474 50.8745 61.1358 50.4893 60.6513 50.217C60.1669 49.9447 59.6238 49.7934 59.0684 49.7759L46.1496 47.7852C46.0852 47.7773 46.023 47.7566 45.9668 47.7243L36.5113 42.5649C33.3332 41.1959 29.8955 40.534 26.4363 40.6251C19.5707 40.6251 17.8137 41.722 17.0621 42.1993L11.4152 45.429C11.1003 45.6105 10.7428 45.7051 10.3793 45.7032H7.14961C5.06758 45.7032 3.59492 47.1149 3.11758 49.522L2.09179 53.6251C2.00193 54.0982 2.02108 54.5856 2.14779 55.0502C2.2745 55.5147 2.50543 55.9444 2.82304 56.3063C3.22855 56.793 3.73424 57.1864 4.30562 57.4598C4.877 57.7332 5.50064 57.8802 6.13398 57.8907H8.12461C8.12461 56.2745 8.76663 54.7246 9.90943 53.5818C11.0522 52.439 12.6022 51.797 14.2184 51.797C15.8345 51.797 17.3845 52.439 18.5273 53.5818C19.6701 54.7246 20.3121 56.2745 20.3121 57.8907H43.6715C43.6715 56.2745 44.3135 54.7246 45.4563 53.5818C46.5991 52.439 48.1491 51.797 49.7652 51.797C51.3814 51.797 52.9314 52.439 54.0742 53.5818C55.217 54.7246 55.859 56.2745 55.859 57.8907H60.2871C60.7351 57.8899 61.1758 57.7769 61.5689 57.562C61.962 57.3471 62.295 57.037 62.5374 56.6603C62.7798 56.2835 62.924 55.852 62.9567 55.4052C62.9894 54.9584 62.9096 54.5105 62.7246 54.1024ZM25.4207 47.1149C21.5309 46.9016 17.6105 46.6071 14.1473 46.2009L18.1387 43.9157C18.6566 43.5907 19.9973 42.7579 25.4207 42.6665V47.1149ZM27.452 47.2266V42.6767C30.2314 42.6916 32.9799 43.2613 35.5363 44.3524L41.6402 47.6837C38.0246 47.6227 32.8551 47.5009 27.452 47.2266Z" fill="white"/>
<path d="M49.7656 61.9531C52.0093 61.9531 53.8281 60.1343 53.8281 57.8906C53.8281 55.647 52.0093 53.8281 49.7656 53.8281C47.522 53.8281 45.7031 55.647 45.7031 57.8906C45.7031 60.1343 47.522 61.9531 49.7656 61.9531Z" fill="white"/>
</svg>
